<?xml version="1.0" encoding="utf-8"?>
<!-- Generator: Adobe Illustrator 26.0.3, SVG Export Plug-In . SVG Version: 6.00 Build 0)  -->
<svg version="1.1" id="Livello_1" xmlns="http://www.w3.org/2000/svg" xmlns:xlink="http://www.w3.org/1999/xlink" x="0px" y="0px"
	 viewBox="0 0 500 350" style="enable-background:new 0 0 500 350;" xml:space="preserve">
<path d="M357,224.2c37.2,0,73.7,0,110.3,0c0-37.1,0-73.8,0-110.5c-37,0-73.5,0-110.3,0C357,150.6,357,187.2,357,224.2z M143.7,175.5
	c0.1-30.6-24.4-55.5-55-55.9c-30.6-0.4-56,24.7-56,55.5c-0.1,30.9,25,56,55.6,55.9C118.9,230.9,143.6,206.1,143.7,175.5z
	 M188.6,135.5c13.8,13.6,27.3,26.9,41.8,41.2c-13.5,13.4-26.8,26.6-39.6,39.3c6.1,6.4,12.3,12.9,19.3,20.3
	c13.5-13.6,26.8-27,41.1-41.5c13.6,13.8,26.8,27.1,39,39.5c6.4-6.5,12.9-13,20.1-20.4c-12.6-12.5-25.9-25.8-39.9-39.7
	c13.3-13.2,26.7-26.4,39.4-39c-6.7-6.6-13.2-13.1-20.3-20.2c-12.8,12.9-26,26.2-40.3,40.6c-13.6-13.7-26.9-27.1-40.3-40.5
	C202.6,121.5,196.4,127.8,188.6,135.5z"/>
</svg>
