<?xml version="1.0" encoding="utf-8"?>
<!-- Generator: Adobe Illustrator 26.0.3, SVG Export Plug-In . SVG Version: 6.00 Build 0)  -->
<svg version="1.1" id="Livello_1" xmlns="http://www.w3.org/2000/svg" xmlns:xlink="http://www.w3.org/1999/xlink" x="0px" y="0px"
	 viewBox="0 0 500 500" style="enable-background:new 0 0 500 500;" xml:space="preserve">
<style type="text/css">
	.st0{fill:#F15A24;}
</style>
<path class="st0" d="M270.4,381.9v-22.5c0-1.3,0.1-2,0.2-2c0.1,0,0.9,0,2.2,0h7.1h32.8h24.1c2.6,0,5.3,0.1,7.9,0.2
	c2.6,0.1,5.3-0.1,7.9-0.6c6.8-0.8,12.4-4.1,16.8-9.9c4.3-5.8,6-12.1,4.9-18.9c-1.1-5.5-3.8-10.3-8.3-14.2c-4.5-3.9-9.6-5.9-15.4-5.9
	c-5-0.3-9.9-0.3-14.8-0.2c-4.9,0.1-9.8,0.2-14.8,0.2h-73.4h-73h-29.6c-5.8,0-10.9,1.8-15.4,5.3c-4.5,3.6-7.4,8.1-8.7,13.6
	c-1.3,5.8-0.6,11.3,2.2,16.6c2.8,5.3,6.8,9.1,12,11.4c2.4,1.3,4.8,2,7.3,2.2c2.5,0.1,5.1,0.2,7.7,0.2h19.7h45.8h4.7
	c0.5,0,0.8,0.5,0.8,1.6v22.1c0,3.7,0,7.3,0,10.9c0,3.6-0.4,7.2-1.2,10.9c-2.4,15-8.6,28-18.6,39.1c-7.9,8.9-17.8,15.9-29.6,20.9
	c-6.3,2.4-13,3.9-20.1,4.7c-2.9,0.5-5.7,0.8-8.3,0.8c-2.6,0-5.3,0.5-7.9,1.6c-1.2,0.5-2.3,1.1-3.3,1.7c24,12.8,50.3,21.8,78.2,26.2
	c1.5-0.9,3-1.9,4.5-2.9c10.3-7,19.3-15.3,27.2-25.1c7.9-9.7,14.2-20.4,18.9-32l66.3,39.1c1.6,1,3.2,2,4.9,2.8
	c1.7,0.8,3.4,1.7,4.9,2.8c1.1,0.6,2.2,1.2,3.4,1.7c11.4-4.4,22.4-9.6,33-15.6c0.3-1.2,0.6-2.5,0.8-3.8c0.8-6.6-0.7-12.5-4.3-17.8
	c-1.6-2.1-3.5-3.9-5.7-5.5c-2.2-1.6-4.5-3-6.9-4.3c-10.3-6.1-20.6-12.1-31-18.2c-10.4-6.1-20.7-12.1-31-18.2
	c-3.2-1.8-6.3-3.7-9.5-5.5c-3.2-1.8-6.3-3.7-9.5-5.5l-5.9-3.6c-0.3-0.3-0.3-1-0.2-2.2C270.3,382.9,270.4,382.1,270.4,381.9z"/>
<path d="M330.6,12.8c-1.5,3.2-2.2,6.7-2.2,10.6v146.4l-31.9-32c-12.9-12.9-28.5-19.3-46.9-19.3c-8.9,0-17.5,1.6-25.6,4.9
	c-8.1,3.3-15.2,8.1-21.3,14.4l-31.5,31.6v-146c0-3.8-0.8-7.2-2.2-10.4c-16.6,5.6-32.3,13-47.1,21.8v193.5c0,6.8,2.4,12.6,7.1,17.4
	s10.5,7.1,17.4,7.1c5,0,9.7-1.4,14.2-4.3v0.4l72.6-73c4.5-4.5,9.9-6.7,16.2-6.7c5.8,0,11.1,2.1,15.8,6.3l70.3,70.7l3.2,2.8l0.4-0.4
	c4.2,2.9,8.7,4.3,13.4,4.3c6.8,0,12.6-2.4,17.4-7.1c4.7-4.7,7.1-10.5,7.1-17.4V33.9C362.4,25.4,346.9,18.3,330.6,12.8z"/>
<g>
</g>
<g>
</g>
<g>
</g>
<g>
</g>
<g>
</g>
<g>
</g>
<g>
</g>
<g>
</g>
<g>
</g>
<g>
</g>
<g>
</g>
<g>
</g>
<g>
</g>
<g>
</g>
<g>
</g>
</svg>
