<svg id="Livello_1" data-name="Livello 1" xmlns="http://www.w3.org/2000/svg" viewBox="0 0 500 350"><path d="M371.79,193.83c-51.54-2.11-81.6-28.25-91.37-78.25H133.85v6.84q0,79.07,0,158.13c0,2.12.54,4.83-.53,6.23-1.84,2.43-4.51,5.1-7.28,5.75-3.47.82-6.36-1.7-7.33-5.47a24.52,24.52,0,0,1-.56-4.2,27.29,27.29,0,1,0-53.88,7.88c3.1,13.15,13.65,21.65,27.3,21.66q133.91.06,267.81,0c9.74,0,12.65-2.91,12.66-12.72q0-50.31,0-100.63C372,197.18,371.86,195.3,371.79,193.83ZM149.17,139.45c.1-9.51,5-14.46,14.41-14.56,7.09-.07,14.19,0,21.28,0s14.19-.08,21.28,0c8.21.12,13.33,5.07,13.5,13.25s.14,16.31,0,24.46-5.26,13.19-13.48,13.28q-21.54.22-43.09,0c-8.71-.08-13.7-5.27-13.83-14.11C149.08,154.35,149.1,146.9,149.17,139.45Zm70.43,148c-.22,7.65-5.14,12.74-12.79,12.87q-22.08.38-44.15,0c-8.51-.14-13.33-5.35-13.47-13.92q-.21-11.7,0-23.41c.18-8.51,5.24-13.49,13.69-13.59,7.27-.1,14.55,0,21.82,0,7.09,0,14.18-.07,21.28,0,8.39.1,13.4,4.78,13.61,13S219.83,279.13,219.6,287.45Zm.05-62.44c-.19,7.91-5.28,12.78-13.18,13-3.72.1-7.45,0-11.17,0s-7.45,0-11.17,0c-7.1,0-14.19.09-21.28,0-8.48-.13-13.51-5.12-13.66-13.64-.14-8-.17-16,0-23.93s5-13.18,12.94-13.34c14.89-.3,29.8-.27,44.69,0,7.61.13,12.54,5.31,12.76,12.92C219.83,208.33,219.85,216.68,219.65,225Zm67.57-30.88a147.37,147.37,0,0,1,19,0c4.26.27,6.64,3.24,6.59,7.55s-2.61,6.93-6.81,7.41a86.5,86.5,0,0,1-9.53.07v0a77,77,0,0,1-9-.07c-4.3-.52-6.58-3.38-6.57-7.61C281,197.41,283.2,194.4,287.22,194.13Zm-37.07,0a140.67,140.67,0,0,1,19,0c4.25.31,6.51,3.45,6.4,7.71s-2.81,6.8-7,7.25a84.18,84.18,0,0,1-9,.06c-3,0-6,.19-9-.07-4.33-.37-6.77-3.07-6.91-7.3S245.88,194.39,250.15,194.1Zm3.12,21.81c11-.06,22,0,32.93,0,11.16,0,22.31,0,33.46,0,6.37,0,10,2.88,10.07,7.71s-3.72,7.75-10,7.76q-33.19,0-66.39,0c-6.07,0-9.56-2.74-9.71-7.42C243.49,219,247,215.94,253.27,215.91Zm14.91,66.58c-2.81.24-5.65.05-8.48.05v0c-2.65,0-5.31.1-7.95,0-4.8-.22-7.95-3.14-8.12-7.38a7.5,7.5,0,0,1,7.48-8,143.58,143.58,0,0,1,17.48.08c4.41.32,7.17,3.14,7,7.78S272.66,282.12,268.18,282.49Zm69,.05c-8,.06-15.92,0-23.88,0-7.79,0-15.57,0-23.36,0-5.61,0-8.92-2.86-9.07-7.47s3-7.85,8.63-7.91q24.15-.25,48.3,0c5.6.05,8.73,3.29,8.55,8C346.17,279.68,342.77,282.5,337.19,282.54Z"/><path d="M366.55,37.58c-38.47-.07-70.16,31.18-70.35,69.36-.19,39,31.29,70.9,70,70.89a70.13,70.13,0,0,0,.39-140.25Zm29.69,102.47c-.09,5.65-2.95,8.21-8.75,8.32-4.23.08-8.45,0-12.89,0-.9,5.79-.18,12.52-8.4,12.73-4.92.13-6.55-2.5-8.17-12.72-4.08,0-8.29,0-12.49,0-5.53-.08-9-3-9.18-7.47-.15-4.77,3.29-7.82,9.26-7.87,11.5-.09,23,0,34.94,0V115.46H374.5c-9.76,0-19.51.06-29.27,0-6-.06-8.85-2.85-8.91-8.78q-.17-15.44,0-30.86c.07-5.93,2.87-8.59,8.92-8.87,2.13-.09,4.26,0,6.39,0h6.63c.94-9.4,2.89-12.46,7.71-12.69,5.07-.24,7.07,2.56,8.8,12.72,4.28,0,8.67-.14,13.05,0,5.29.21,8.39,3.15,8.43,7.63.05,4.71-3.2,7.71-8.8,7.77-9.75.1-19.51,0-29.27,0h-6v17.76h6.78c9.58,0,19.16-.07,28.74.06,5.83.07,8.5,2.66,8.57,8.47Q396.46,124.35,396.24,140.05Z"/><path d="M63.91,251.5c18.12-12.3,35.84-12.33,53.81-.15a11.66,11.66,0,0,0,.4-1.79c0-47.93.11-95.85-.05-143.77,0-8.49-4.24-15.35-11.14-20.24-8.66-6.13-18.08-7.3-27.65-2.44C68.83,88.43,63.71,97.48,63.68,109c-.14,46.33-.06,92.66,0,139C63.63,249,63.78,250,63.91,251.5Z"/><path d="M165.06,222.32h39V203h-39Z"/><path d="M204,140.75H165.17V160H204Z"/><path d="M164.94,284.36h38.81V265.1H164.94Z"/></svg>