<svg id="Livello_1" data-name="Livello 1" xmlns="http://www.w3.org/2000/svg" viewBox="0 0 500 350"><defs><style>.cls-1{fill:#fff;}</style></defs><path d="M107.77,90.7c8.89-14.23,8.89-14.23,23.55-7.45,12.17,5.62,21.14-.28,22.14-13.65.4-5.35-4.11-12.76,5.88-15.62,8.2-2.35,13-1.23,16.54,6.92,2.79,6.48,5.63,12.65,15.49,12.58,8.25-.07,9.76-6.06,13.76-10,3.4-3.38,4.83-8.94,12.24-5.77,6.91,3,9.82,6.16,9.1,14-.51,5.67-4.61,12,2.12,17.73S242,95.8,249.65,92.61c4.82-2,9-3.28,12.38,2.69,3.05,5.45,6.08,9.73.16,15.87-4.09,4.26-10.72,7.13-9.45,16.11,1.42,10.08,8.51,11.91,15.48,14.09s9.48,5.34,8.35,13.06c-1,6.71-4.29,8.42-9.91,9.08-8,.93-14.8,2.49-17.67,12.23-2.49,8.43,3.18,12.58,6.54,17.7,3.64,5.54,3.57,9.11-.76,14.23-4.49,5.31-8.23,5.3-14.11,2.62-5.1-2.31-11.35-4.45-16.57-3.58-7.65,1.27-10.69,7.62-10.49,15.66.16,6.41,2,13.38-8.5,15.69s-12.08-4.81-14.89-10.6c-3.29-6.81-7.85-11.48-15.37-9.26-4.58,1.36-8.89,5.14-12.23,8.81-4.17,4.57-6.62,9.09-14.73,5.68s-8.07-8.76-6.75-15.14c1.57-7.55,2.45-15.44-5.95-18.68-5-1.93-11.76-1.51-17.1,0-7.25,2.09-10.65.24-14.68-5.91-6.4-9.75,2.65-12.91,6.59-17.79,7.54-9.37,6-18.15-5-23.2a47.67,47.67,0,0,0-8.49-3.27c-8-1.95-5.12-8.11-5.59-13.15-.56-6,3.51-6.7,7.78-7.89,6.82-1.89,15.3.07,18.44-10,1.83-5.87,2.11-10.18-1.78-15C112.54,99.17,110.48,95,107.77,90.7Zm76.05,1.9c-29.1,0-53,23.74-53.12,52.65-.07,29.06,23.74,53.05,52.66,53.06s53.16-23.89,53.36-52.63C236.91,117.17,212.43,92.6,183.82,92.6Z"/><path d="M276,84.51c1.87-4.1,3.46-7.61,5.14-11.29,2.33.39,4.13.54,5.85,1,11.6,3.12,21.78-2.62,16.18-17.24-1.54-4-2.12-7,2.68-9.72,5-2.89,7.89-1.59,11.85,1.83a24.78,24.78,0,0,0,12,5.7c7.59,1.07,7.17-6.59,10.12-10.72,1.73-2.42,5-5.35,7.47-5.22,2.67.14,6.63,3,7.51,5.61,6.39,18.49,9.17,19.54,26.51,8.6,10.76,5.84,10.83,6,6,17.12-3.86,8.83-.68,14.39,8.87,15.8,3.57.53,7.71.53,10.47,2.41,4.61,3.14,2.77,10.58-2.82,13.79-12.7,7.27-13.42,13.66-2.1,23,3.84,3.14,5.17,5.79,3.27,10.71-2.13,5.52-5.62,5.31-10.09,4.15-11.1-2.86-20.33,4.42-14.89,17.06,1.82,4.23,2.12,7.62-3.18,10.39-4.92,2.56-7.64,1-11.09-2.21-11.27-10.61-15.74-9.36-22.29,5a11.38,11.38,0,0,1-7.38,5.56c-4.82.81-7.4-2.33-8.49-7.28-3.46-15.82-7.32-17.26-21.48-9.67-2.35,1.26-7.29,1-9-.6-2.12-2.08-3.73-6.86-2.79-9.49,5.73-16.07,4.94-17.49-12.51-21.29a11.06,11.06,0,0,1-6.94-6.24c-.72-2.14,1-6.54,3-7.92,14.94-10.23,15.32-13.86,1.69-25.76C278.65,86.72,277.7,86,276,84.51Zm65.67-15.89c-21.78,0-38.82,16.75-38.95,38.3a38.36,38.36,0,0,0,38.43,38.82c22.27.1,39.48-16.82,39.43-38.75C380.49,85.56,363.31,68.62,341.63,68.62Z"/><path d="M336.23,303.11a19.06,19.06,0,0,1-2.5-1.4c-14.11-11-16.13-10.44-23.77,5.45-1,2.16-5,3.94-7.64,4-2.06,0-4.27-2.77-6.24-4.51-.56-.5-.48-1.71-.73-2.58-3.48-12.19-8.6-14.08-18.68-6.85-3.14,2.25-5.64,5.27-10.23,1.69-4.27-3.34-4.17-6.43-2.47-11,4.82-12.86,2.06-16.28-12.06-17.32-2.69-.2-5.82-2.87-7.57-5.25-3.08-4.19-.36-6.83,3.42-9.38,11.75-7.9,11.85-12.16.45-20.84-3.67-2.79-4.75-5.34-3.26-9.84,1.68-5.1,5-5,9.2-4.67,12.11.84,16.78-4.41,12.63-15.32-2.93-7.67-.24-11.33,6.53-13.83,20,11.17,20,11.17,28.54-8.66,6.6-1.43,11.33-.93,13.16,7.49,2.67,12.32,8.39,14,18.41,6.76,1.93-1.41,3.93-2.73,5.68-3.94,7.56,3.1,10,7.16,6.37,15-4.25,9,.28,15.38,10.14,15.83,4.31.2,8.71-1.38,10.7,5.24s-2.34,8-5.92,10.44c-8.76,6.07-8.84,11.72-.65,18.4,2.51,2.05,5.62,5.13,5.77,7.89.26,4.82-2.22,8-8.61,7.5-13.26-1-17.87,4.52-13.41,16.4C346.6,298.11,342.07,300.53,336.23,303.11ZM305,210.88c-19.8.05-36.74,17-36.56,36.6.17,19.21,16.79,35.71,36.27,36,19.64.31,36.76-16.45,37-36.21C341.92,227.88,324.73,210.83,305,210.88Z"/><path class="cls-1" d="M189.69,166.6V153l2.34-1.85c2.73,2.64,7.91,5.6,7.61,7.84-.45,3.42-4.69,6.34-7.33,9.48Z"/><path d="M182.75,187.08v-9.86c-5.66-.1-11.51-1.85-14.93-4.29l2.34-6.54a26.06,26.06,0,0,0,14.05,4.2c6.93,0,11.62-4,11.62-9.57,0-5.36-3.81-8.68-11-11.61-10-3.9-16.1-8.39-16.1-16.88,0-8.1,5.76-14.25,14.73-15.71V107h6v9.47a26.08,26.08,0,0,1,12.69,3.41l-2.44,6.45a23.5,23.5,0,0,0-12.3-3.32c-7.51,0-10.34,4.49-10.34,8.39,0,5.07,3.61,7.61,12.1,11.12,10.05,4.1,15.13,9.18,15.13,17.86,0,7.71-5.37,14.93-15.42,16.59v10.15Z"/><path d="M339.89,136.29V130.1a17.8,17.8,0,0,1-9.38-2.7l1.47-4.11a16.29,16.29,0,0,0,8.83,2.64c4.36,0,7.3-2.51,7.3-6s-2.39-5.46-6.93-7.3c-6.26-2.45-10.12-5.27-10.12-10.61,0-5.09,3.62-9,9.26-9.87V86h3.8v6a16.4,16.4,0,0,1,8,2.14l-1.54,4A14.73,14.73,0,0,0,342.84,96c-4.73,0-6.5,2.82-6.5,5.28,0,3.19,2.26,4.78,7.6,7,6.32,2.57,9.51,5.76,9.51,11.22,0,4.85-3.38,9.38-9.69,10.43v6.37Z"/><path d="M302.14,272.65v-6.2a17.89,17.89,0,0,1-9.38-2.69l1.47-4.11a16.38,16.38,0,0,0,8.83,2.63c4.36,0,7.3-2.51,7.3-6s-2.39-5.45-6.93-7.29c-6.25-2.46-10.12-5.28-10.12-10.61,0-5.09,3.62-9,9.26-9.88V222.3h3.81v5.95a16.39,16.39,0,0,1,8,2.14l-1.54,4.05a14.85,14.85,0,0,0-7.72-2.08c-4.72,0-6.5,2.82-6.5,5.27,0,3.19,2.27,4.78,7.6,7,6.32,2.58,9.51,5.77,9.51,11.22,0,4.85-3.38,9.39-9.69,10.43v6.38Z"/></svg>