<svg id="Livello_1" data-name="Livello 1" xmlns="http://www.w3.org/2000/svg" viewBox="0 0 500 350"><path d="M247.4,273.06c22.14-2.89,44.35-5.31,66.37-8.93,6.85-1.12,13.39-5,19.67-8.42,15.46-8.35,30.65-17.21,46.05-25.68a46.78,46.78,0,0,1,9.45-3.52c6.8-2,12.24.11,14.57,5.42,2.54,5.79.65,12-5.32,15.56-12.58,7.59-25.31,14.93-38,22.35-17.26,10.09-34.46,20.29-51.83,30.21-11.86,6.76-24.67,8.8-38.31,7.49-12.69-1.22-25.48-1.52-38.23-2.09-23.59-1.07-47.17-2.23-70.77-2.85-3.51-.09-7.15,2.43-10.62,4-2.8,1.24-5.35,3.84-8.18,4.12-9.8,1-19.68,1.51-29.54,1.66-7.2.1-12.44-4.66-13-11.88-1.66-19.9-3.15-39.82-4.26-59.76-.48-8.66,5.17-14.56,13.86-15.4,7.66-.74,15.39-1.69,23-1.33,4.68.21,9.22,2.83,13.9,4.1,2.09.57,4.74,1.34,6.51.57,23-10,46.21-9.55,69.82-2.47,4.76,1.42,10,1.72,15,1.85,20.73.57,41.46.83,62.2,1.29,7.88.17,13,5,13.3,12.22.36,7.64-4.52,13.56-12.22,14.31-21.3,2.07-42.62,4-63.93,6-1.44.13-3.25-.07-4.2.71-1.83,1.5-3.17,3.59-4.7,5.43,1.83,1.21,3.57,3.23,5.52,3.45,4.53.52,9.15.17,13.74.17ZM124.54,300.55c5.77.13,9.79-3.49,10-9s-3.58-9.72-9.1-9.92c-5.73-.2-10.62,4.12-10.71,9.46C114.6,296.21,119,300.42,124.54,300.55Z"/><path d="M348.2,123.62c0,47.85-37.91,85.93-85.65,85.95A86,86,0,0,1,176.32,124c-.49-47.39,39.27-86.39,86.23-86.37C308.85,37.66,349.28,76.4,348.2,123.62Zm-155.95-.4c-.85,35.48,29.83,68.25,63.61,70.35,44.46,2.77,75.84-31.47,76.91-68.19,1.12-38.32-30.76-71.45-68.92-72.19C225.18,52.44,193.2,83.71,192.25,123.22Z"/><path d="M375,217.39l-44,24.22c-3.2-5.34-1.56-8.42,4-10.77,9.25-4,18.17-8.7,27.46-12.57,3.79-1.59,8.17-1.78,12.27-2.6Z"/><path d="M318.93,217.76l30.79-10.13.95,2.6c-8.95,4.16-17.84,8.47-26.93,12.29-1.18.5-3.41-1.49-5.15-2.33C318.7,219.38,318.81,218.57,318.93,217.76Z"/><path d="M281.83,98.63c-6.81-.75-13-2.14-19.07-1.81-3.12.17-7.94,3-8.56,5.44s2.14,7.09,4.72,9.1c3.68,2.88,8.52,4.3,12.91,6.25,9.66,4.28,16.59,10.51,16.79,22.07s-6.12,18-15.85,22.69c-2.29,1.1-4.16,4.88-4.56,7.67-.56,3.87-1,6.31-5.73,6.39-4.49.07-6.93-1.1-6.44-6.05.45-4.64-2.41-6.43-6.46-7a35.29,35.29,0,0,1-3.57-.53c-11.34-2.81-12.64-6.12-6.57-16.57,5.81,1.29,11.57,2.79,17.42,3.77,2.53.42,5.64.56,7.76-.55,2.76-1.44,6.14-3.93,6.77-6.56s-1.1-7.08-3.27-8.55c-5.3-3.58-11.48-5.88-17.28-8.74-7.74-3.81-13.56-8.88-13.88-18.49C236.63,97,240.79,89.89,250.06,86c4.63-1.93,7.75-4.24,7.65-9.94,0-1.5,3.12-4.38,4.6-4.24,2,.18,5.4,2.54,5.49,4.11.28,5.31,3,6.72,7.6,7.78C287,86.42,287.32,87.57,281.83,98.63Z"/></svg>