<svg xmlns="http://www.w3.org/2000/svg" viewBox="0 0 394.84 186.1"><defs><style>.cls-1{fill:#fff;}</style></defs><g id="Livello_2" data-name="Livello 2"><g id="Livello_1-2" data-name="Livello 1"><path class="cls-1" d="M0,14.27c1.57.87,3,1.64,4.4,2.44a42.17,42.17,0,0,0,19.07,5.16c8.27.4,16.56.61,24.84.71,11.46.14,22.92,0,34.38.19,14.78.25,28.79,3.47,41.35,11.67,13,8.49,22,20.12,27.27,35.17-11,4.34-18.81,12.66-26.51,21.31l18.31-3.69.22.31c-.38.41-.77.81-1.16,1.21-6.51,6.53-11.57,14-13.44,23.13-1,4.73-1.21,9.62-1.74,14.44-.28,2.58-.48,5.16-.72,7.75l.37.16,3.81-5.16c-.08,1.36-.21,2.38-.2,3.39.09,4.39.19,8.77.35,13.15a2.47,2.47,0,0,1-.9,2.38A68.24,68.24,0,0,1,92.9,163.32c-6.45.64-13,.88-19.44.91-22,.11-44,.05-66,.05h-3L4.3,164c1-.62,2-1.26,3-1.86,4.26-2.53,8.48-5.14,12.81-7.55,3.7-2.06,5.28-5.27,5.59-9.27Q26,142,26,138.72,26,99,26,59.21a39.15,39.15,0,0,0-.29-4.59,12.88,12.88,0,0,0-5.46-9.36C12.93,40,6.74,33.6,3,25.25a75.84,75.84,0,0,1-3-9.46A6.21,6.21,0,0,1,0,14.27ZM65.27,93.35c0,11.6,0,23.21,0,34.82,0,1.54.49,1.91,1.92,1.84,2.35-.11,4.71.06,7.06,0,5.3-.25,10.69,0,15.86-1,10.49-2,17.73-8.28,21.36-18.39,3.58-10,3.57-20.13,1.19-30.36-3.15-13.56-14-22.58-27.95-23.08-5.87-.21-11.76-.14-17.63-.28-1.42,0-1.81.44-1.81,1.84C65.3,70.23,65.27,81.79,65.27,93.35Z"/><path class="cls-1" d="M319.11,164.19c7.27-12.48,5.71-23.67-4-34.21h4.78a41.57,41.57,0,0,0,13.15-1.84A27,27,0,0,0,351,110.54a50.3,50.3,0,0,0-.15-34.43C346.93,65.35,339,59.27,327.7,57.51a60.83,60.83,0,0,0-8.1-.61c-4.14-.1-8.28,0-12.43,0-1.43,0-2.76-.07-2.42,2.12-10.68-1.1-20.94-.35-30.89,4.82.8-1,1.37-1.7,2-2.39a21.13,21.13,0,0,0,1.89-2.26c-4.26,1.25-8.12,3.4-12.22,5.67,0-2.14.05-4,0-5.8-.05-1.63-.16-3.27-.36-4.89a12.35,12.35,0,0,0-5.29-8.78c-7-5.08-12.9-11.18-16.81-19a29.47,29.47,0,0,1-3.51-12.13c.45.24.75.38,1,.56a44.21,44.21,0,0,0,22.08,7.09q11,.59,21.93.72c12.43.14,24.86,0,37.3.18,14.28.21,27.91,3.1,40.23,10.72,16,9.88,26.36,24,30.57,42.2,5,21.6,1.52,41.86-11.4,60.15-5.17,7.33-12,12.89-19.65,17.59a70.85,70.85,0,0,1-33,10.3C325.53,163.93,322.47,164,319.11,164.19Z"/><path class="cls-1" d="M148.25,171.3a39.14,39.14,0,0,1-7.38-9.63c-5.05-9.06-6.48-18.82-5.62-29a75.24,75.24,0,0,1,3.27-15.72c.34-1.12,1.09-2.6-.23-3.37s-2.35.48-3.3,1.31c-.66.56-1.27,1.17-2.2,2,.39-1.95.63-3.67,1.1-5.32,2.27-8,6.86-14.54,12.79-20.23,1-.92,2-1.79,3-2.64.27-.22.88-.49,1-.37a1.59,1.59,0,0,1,.53,1.14c-.24,1.92-.66,3.82-.86,5.74-.47,4.32-.85,8.64-1.25,13a18.87,18.87,0,0,0,0,3.62c6.46-6.72,12.18-14.25,21.23-17.87q-1.14,6.41-2.29,12.84l.34.22c2.29-1.58,4.62-3.13,6.87-4.77s4.71-3.09,7.71-2.91c.81,0,1.61.19,2.73.33-.48.61-.78,1-1.12,1.42-5.79,6.48-10.13,13.75-11.65,22.42-1.48,8.39-.4,16.33,5,23.24a20.22,20.22,0,0,0,24.74,5.73c7.57-3.61,13.14-9.43,17.9-16.14.62-.87,1.18-1.77,1.88-2.83,2.84,2.31,5.57,4.51,8.27,6.77,2.35,2,4.65,4,7,6a1.38,1.38,0,0,1,.43,2c-5.55,10.62-12.62,20-22.75,26.64a49.72,49.72,0,0,1-24.19,8,46.25,46.25,0,0,1-30-8.1,42.69,42.69,0,0,1-9.22-9.13,6.27,6.27,0,0,0-1.2-1.39c-.59-.38-1.45-.86-2-.67a2.24,2.24,0,0,0-1.13,1.75C147.66,167.19,148,169.15,148.25,171.3Z"/><path class="cls-1" d="M278,124.57a16.89,16.89,0,0,1,7.21,12.68c.56,5.16-.71,9.72-4.77,13.29l.08.43a50.5,50.5,0,0,0,5.21.14c4.59-.35,8.92-1.59,12.2-5,5.16-5.42,3.46-14-3.46-18-.83-.47-1.7-.85-2.66-1.33,11.51-1,24.69,6.68,26.61,19.47,1.3,8.64-2.15,15.54-9,20.7a26.36,26.36,0,0,1-18.79,5.12c-.29,0-.59,0-.93-.05,1.38,3.21,11,5.6,18,4.35a23.71,23.71,0,0,1-2.07,2.27,31.85,31.85,0,0,1-17.28,7.23c-7.09.85-13.68-.49-19.36-5a25.45,25.45,0,0,1-9.64-17.37c0-.29-.13-.56-.2-.89-4.27,3-5.8,12.44-.66,18.84a20.72,20.72,0,0,1-2.61-1c-6.45-3.63-10.27-9-10.37-16.54,0-3.17.25-6.33.33-9.5a15.22,15.22,0,0,0-5.8-12.78c-5.46-4.47-10.83-9-16.33-13.45-4.52-3.62-7.7-7.89-7.72-14,0-3.37-1.74-5.75-4.32-7.72a44.22,44.22,0,0,1-4.8-4c-2.47-2.48-2.79-5.53-1.8-9.19,1.19,5.09,4.72,6.62,9,7.06,1.43.14,2.86.25,4.26.52a5.69,5.69,0,0,1,5,4.76c.25,1.25.48,2.51.81,3.74.66,2.46,1.7,3.26,4.22,3.47,2.19.18,4.39.3,6.55.64,3.14.5,5.31,2.74,7.64,4.64,6.53,5.34,13,10.75,19.56,16.06,2.76,2.23,5.9,3.49,9.55,2.51a9.3,9.3,0,0,0,6.56-10.44C278.18,125.83,278.13,125.42,278,124.57Z"/><path class="cls-1" d="M155,97.62c.35-1.9.72-3.79,1-5.7.94-5.74-1.58-9.09-7.35-9.66a30.42,30.42,0,0,0-4.27,0c-1.37.06-2.74.26-4.55.44a11.1,11.1,0,0,1,1.49-1.41c4.45-2.69,8.93-5.36,13.39-8,1.27-.76,2.58-1.48,3.79-2.33,2.49-1.75,2.92-3.64,1.1-6.12a48.16,48.16,0,0,0-4.73-5.18,23.86,23.86,0,0,0-2.62-2A51.31,51.31,0,0,1,166.36,59a18.47,18.47,0,0,1-2-13.64c.81,1.25,1.41,2.28,2.12,3.24,3,4.1,7.25,6.69,11.53,9.22,2.25,1.32,4.54,2.57,6.76,3.94,3.22,2,6.27,4.22,8.29,7.6l.39-.24a25.81,25.81,0,0,0-1-2.56,20.41,20.41,0,0,0-6.89-7.69,5.74,5.74,0,0,1-2.68-4.33,33,33,0,0,1,2.25-18.45,12.85,12.85,0,0,1,.74-1.22,4.16,4.16,0,0,1,.27.83c.09,6,2.71,10.93,6.61,15.12,4.06,4.37,8.5,8.4,12.85,12.5,3.83,3.61,7.77,7.11,10.84,11.54-.58-1.24-1.07-2.52-1.75-3.69-3.07-5.31-7.53-9.39-12-13.43-2-1.81-4-3.64-5.87-5.62A6.56,6.56,0,0,1,195.11,49a19.94,19.94,0,0,1,1.21-11.13,3.06,3.06,0,0,1,.29-.53c.06-.07.18-.09.38-.18.17,1.13.29,2.23.51,3.31,1.16,5.46,4.27,9.84,8.06,13.7,4.29,4.38,8.9,8.45,13.24,12.78,3.39,3.4,6.22,7.26,7.44,12a47.28,47.28,0,0,1,.65,6.34c.05.49.21,1.22.54,1.37a5.19,5.19,0,0,1,3.38,5c2.74-.77,4.35-2.63,5.83-4.72,1.55,6.56-3.29,17.51-9.41,20.4,0-1,0-2,0-3-.12-2.88-1.39-5.19-4.17-6a68.8,68.8,0,0,0-8.39-1.5,10.77,10.77,0,0,0-1.62,0c.58-1.65,1.2-3,1.56-4.49.59-2.38-.15-3.47-2.58-3.89-4.85-.83-9.69-.32-14.49.47A27.89,27.89,0,0,0,192,90.43l8.12,1.1c-.76,2.62-1.47,4.89-2.05,7.19a4.57,4.57,0,0,0,.08,2.11c.42,1.69,1.57,2.19,3.13,1.43.37-.18.72-.38,1.25-.67-.24,1.25-.46,2.33-.64,3.42-.78,4.82.33,6,5.15,5.45-.38,4-10.19,9.35-14.93,8.92,1.35-1.65,2.78-3.35,4.17-5.09a5.49,5.49,0,0,0,.54-1.24l-6.69.82c1.05-1.4,2-2.43,2.64-3.57,3.13-5.2,1.75-11.75-3-14.26a15.17,15.17,0,0,0-13-.59c-.48.18-.94.4-1.81.79,2.49-5.68,6.45-9.41,11.51-12.49l-7.91-2.06c1.42-2,7.36-4,15.9-5.28-4.34-3.22-21.93,2-25.34,7.65l7.62,1.38C168.68,88.15,161.68,92.49,155,97.62Zm51.71-22.43c.67,5.24,4.37,9.39,8.38,8.63C214.74,80.62,210.11,75.85,206.68,75.19Z"/><path class="cls-1" d="M221.45,62.78c-5-5.11-9.81-9.94-14.6-14.75-1.15-1.17-1.23-2.24-.55-3.8,2.72-6.26,3.24-12.67.29-19a12.42,12.42,0,0,0-12-7.62A13.07,13.07,0,0,0,182.44,25a27.84,27.84,0,0,0-2.06,6.36c-.61,2.35-1.09,4.74-1.49,7.14-.69,4.21-1.28,8.45-1.93,12.78-3.07-1.81-6-4.07-7.68-7.61s-3-7-4.44-10.44a7.15,7.15,0,0,0-1.07-1.9c-1.9,6.8-5.54,13.12-4.84,20.51l-.47.14a46.08,46.08,0,0,1-2.53-6.05c-2.71-10.14-1.82-19.92,4-28.84A35.94,35.94,0,0,1,184.74.85C193.6-.7,202.41-.26,210.82,3.2c12.22,5,18.88,14.36,20.55,27.34,1.25,9.74-1.94,18.45-6.52,26.78C223.89,59.05,222.76,60.69,221.45,62.78Z"/><path class="cls-1" d="M324.12,81.1a40.74,40.74,0,0,0-17.73,1.55c-3.24,1-6.29,2.61-9.45,3.89a1.84,1.84,0,0,1-1.47,0c-8.49-5.33-21.55-2.7-28.19,5.13a114.38,114.38,0,0,0-15.91,24.86c-.23.49-.5,1-.78,1.52-4.27-2.94-7.55-7-12.81-9,12.55-15.64,26.55-28.65,47.31-31.65-16-.1-28.7,7-39.81,17.85A50.4,50.4,0,0,1,265.46,70c-.63,1-1.28,2.06-1.87,3.11a5.48,5.48,0,0,0-.73,1.67c-.09.61-.14,1.5.2,1.82a2,2,0,0,0,1.82.08,34.16,34.16,0,0,0,3.83-2.52c3.52-2.53,6.92-5.24,10.56-7.58,1.77-1.13,4-1.58,6-2.34l.23.52c-1,.72-2.09,1.4-3.07,2.17a6.6,6.6,0,0,0-1.82,1.83,3,3,0,0,0-.28,2.34c.22.44,1.45.67,2.12.53,1.94-.43,3.82-1.11,5.73-1.68a31.77,31.77,0,0,1,22.59,1.62,46,46,0,0,1,12.34,7.91,8.48,8.48,0,0,0,1.58.92Z"/><path class="cls-1" d="M304.71,88.41v35.26l-2.85-.83c-5-1.49-10.1-1.31-15.2-.77a7.41,7.41,0,0,1-5.55-1.26,100.62,100.62,0,0,0-12.41-7.18c.18.6.34,1.22.56,1.81,1.32,3.71,2.74,7.38,3.95,11.12a4,4,0,0,1-3.36,5.27,9.52,9.52,0,0,1-3.73-1.07c-.34-.14-.58-.93-.58-1.42q-.06-13.19,0-26.38a2.06,2.06,0,0,1,.27-1.16c2.84-3.86,5.38-8,9.72-10.46,4.83-2.73,9.91-3.45,15.17-1.5a13.34,13.34,0,0,1,4,2.47c1.3,1.11,2.14,1.12,3.44-.07A32.87,32.87,0,0,1,302.93,89,9.31,9.31,0,0,1,304.71,88.41Z"/><path class="cls-1" d="M290,145.11V131.67a7.47,7.47,0,0,1,5.94,6.91A7,7,0,0,1,290,145.11Z"/><path class="cls-1" d="M304.68,60.9v3.52l-6.27-.85-.09-.3Z"/></g></g></svg>