<?xml version="1.0" encoding="utf-8"?>
<!-- Generator: Adobe Illustrator 26.0.3, SVG Export Plug-In . SVG Version: 6.00 Build 0)  -->
<svg version="1.1" id="Livello_1" xmlns="http://www.w3.org/2000/svg" xmlns:xlink="http://www.w3.org/1999/xlink" x="0px" y="0px"
	 viewBox="0 0 500 500" style="enable-background:new 0 0 500 500;" xml:space="preserve">
<style type="text/css">
	.st0{fill:#F15A24;}
	.st1{fill:none;stroke:#F15A24;stroke-width:9;stroke-miterlimit:10;}
</style>
<g>
	<path class="st0" d="M182.9,457.2c-3.5,0-6.7-1.1-9.6-3.4c-2.9-2.3-4.8-5.1-5.6-8.6c-0.8-3.7-0.4-7.2,1.4-10.6
		c1.8-3.4,4.4-5.9,7.9-7.4c1.7-0.7,3.3-1,5-1c1.7,0,3.4-0.2,5.3-0.5c4.5-0.5,8.8-1.5,12.8-3c7.5-3.2,13.8-7.6,18.8-13.3
		c6.3-7,10.3-15.3,11.8-24.8c0.5-2.3,0.8-4.6,0.8-6.9c0-2.3,0-4.5,0-6.9v-14c0-0.7-0.2-1-0.5-1h-3h-29h-12.5c-1.7,0-3.3,0-4.9-0.1
		c-1.6-0.1-3.1-0.5-4.6-1.4c-3.3-1.5-5.9-3.9-7.6-7.3c-1.8-3.3-2.2-6.8-1.4-10.5c0.8-3.5,2.7-6.4,5.5-8.6c2.8-2.3,6.1-3.4,9.8-3.4
		h18.8H248h46.6c3.2,0,6.3,0,9.4-0.1c3.1-0.1,6.2,0,9.4,0.1c3.7,0,6.9,1.3,9.8,3.8c2.8,2.5,4.6,5.5,5.3,9c0.7,4.3-0.4,8.3-3.1,12
		c-2.8,3.7-6.3,5.8-10.6,6.3c-1.7,0.3-3.3,0.5-5,0.4c-1.7-0.1-3.3-0.1-5-0.1h-15.3h-20.8H264c-0.8,0-1.3,0-1.4,0
		c-0.1,0-0.1,0.4-0.1,1.3v14.3c0,0.2,0,0.6-0.1,1.4c-0.1,0.8,0,1.2,0.1,1.4l3.8,2.3c2,1.2,4,2.3,6,3.5c2,1.2,4,2.3,6,3.5
		c6.5,3.8,13.1,7.7,19.6,11.5c6.6,3.8,13.1,7.7,19.6,11.5c1.5,0.8,3,1.8,4.4,2.8c1.4,1,2.6,2.2,3.6,3.5c2.3,3.3,3.3,7.1,2.8,11.3
		c-0.5,4.2-2.4,7.6-5.8,10.3c-2.5,2-5.4,3.1-8.6,3.3c-3.3,0.2-6.3-0.6-9.1-2.3c-1-0.7-2-1.3-3.1-1.8c-1.1-0.5-2.1-1.1-3.1-1.8
		l-42.1-24.8c-3,7.3-7,14.1-12,20.3c-5,6.2-10.8,11.5-17.3,15.9c-6.5,4.4-13.5,7.9-21,10.4S190.9,457.2,182.9,457.2z"/>
</g>
<g>
	<path d="M184.7,67.3c4.4,0,8.1,1.5,11.1,4.5c3,3,4.5,6.7,4.5,11v92.6l20-20c3.8-4,8.3-7,13.5-9.1c5.2-2.1,10.6-3.1,16.2-3.1
		c11.7,0,21.6,4.1,29.7,12.3l20.2,20.3V82.8c0-4.3,1.5-8,4.4-11c2.9-3,6.5-4.5,10.9-4.5c4.3,0,8,1.5,11,4.5c3,3,4.5,6.7,4.5,11
		v129.9c0,4.3-1.5,8-4.5,11c-3,3-6.7,4.5-11,4.5c-3,0-5.8-0.9-8.5-2.8l-0.3,0.3l-2-1.8l-44.6-44.8c-3-2.7-6.3-4-10-4
		c-4,0-7.4,1.4-10.3,4.3l-46.1,46.3v-0.3c-2.8,1.8-5.8,2.8-9,2.8c-4.3,0-8-1.5-11-4.5c-3-3-4.5-6.7-4.5-11V82.8c0-4.3,1.5-8,4.5-11
		C176.6,68.8,180.3,67.3,184.7,67.3z"/>
</g>
<circle class="st1" cx="250" cy="262.5" r="32.5"/>
<g>
</g>
<g>
</g>
<g>
</g>
<g>
</g>
<g>
</g>
<g>
</g>
<g>
</g>
<g>
</g>
<g>
</g>
<g>
</g>
<g>
</g>
<g>
</g>
<g>
</g>
<g>
</g>
<g>
</g>
</svg>
