<svg id="Livello_1" data-name="Livello 1" xmlns="http://www.w3.org/2000/svg" viewBox="0 0 337.13 177.18"><defs><style>.cls-1{fill:#fff;}</style></defs><path class="cls-1" d="M16.48,63C35,75,54.88,82.51,76,87.13,46.22,75.53,17.3,62.9,4.49,30.23,29.71,48.84,53.25,60.59,71.73,63,40.43,49.92,10.08,36.29,0,0,20.12,23.9,48.42,33,76.57,42.33a138,138,0,0,0,14,3.89c1.44.31,3.17-.67,4.76-1.87,19.84,5.84,38.09,14.86,49.66,33.61a40.16,40.16,0,0,1,5.95,26.3c-1,9.23,2,16.72,8.44,23.41,3.59,3.72,6,8.55,9,12.83.56-.22,1-.24,1.14-.46,4.32-6,9.21-11.72,12.72-18.17,2.42-4.46,4.46-10.1,4-15-2-22.14,8.53-37.57,25.79-49,9-6,19.32-10.19,29-15.19.13.67.26,1.35.4,2,1.59.58,3.39,2,4.73,1.62,25.5-6.81,50.64-14.69,72.6-29.9,6.71-4.64,12.36-10.81,18.37-16.16-.75,7.34-4.17,14.23-8.7,20.58-12.33,17.31-29.81,27.75-48.74,36.2-3.76,1.68-7.63,3.13-12.28,5,14.49-.19,45-15.6,66-33.27-1.39,3.74-2.11,6.35-3.29,8.72a68.43,68.43,0,0,1-26.57,28.56c-11.66,7-24.25,12.34-36.46,18.34-1.92.94-4,1.52-6.74,2.52,13.17-.76,37.19-10.79,61.53-25.58a97.57,97.57,0,0,1-21.72,25.93c-18,15.29-39.59,22.17-62.36,26.14-9.84,1.71-19.73,3.17-29.53,5.13a47.69,47.69,0,0,0-12.23,4.13c-8.73,4.48-10.17,10.48-3.53,17.57,6.45,6.89,14,12.76,21.08,19.05,1.31,1.16,2.79,2.15,4.89,3.76-18.2-1.48-19.91-.69-22.48,9.19-5-1.85-10.08-5-15.24-5.27-6.37-.28-9,5.95-11.26,10.19-4.13-3.47-7.87-9-12.47-9.83s-10.26,2.82-15.83,4.64c-.71-3.27-1.89-8.43-7.5-9.25-4.51-.67-9.2-.14-14.22-.14,1.32-1,2.72-2,4-3.19,7.09-6.28,14.66-12.12,21.09-19,7-7.51,5.6-14.29-4.12-17.88-9.27-3.42-19.2-5.29-29-7-18.58-3.23-37.09-6.46-54.18-15A100,100,0,0,1,18.34,66.25C17.64,65.21,17.09,64.06,16.48,63Z"/><path class="cls-1" d="M164.29,122.65c-2.08-.11-4.35.25-6.14-.52-.87-.36-.86-2.82-1.24-4.33l1.22-.64,6.32,4Z"/><path class="cls-1" d="M172.89,121.29l6.82-4.86c0,2.38.44,5-.08,5.22-2,.8-4.36.83-6.57,1.15Z"/></svg>