<svg id="Livello_1" data-name="Livello 1" xmlns="http://www.w3.org/2000/svg" viewBox="0 0 500 500"><defs><style>.cls-1{fill:#fff;}</style></defs><path class="cls-1" d="M484.09,117.66c5.14,36.89-11.68,64.88-47.81,76.14-18.76,5.85-33.34,10.81-42.49,32.17C383.9,249,358,255.32,334.11,260.36c-3.86.81-9,4.57-10.09,8.05-7.09,22.92-22.78,37-44.55,44.76-8.38,3-14,7.82-19.58,14.62-35.63,43.37-81.26,63.06-136.89,51.13C68.87,367.32,32.85,334,18.8,279.68.08,207.29,52.71,130.18,127.17,120a241.75,241.75,0,0,1,32.15-2.2q156.9-.24,313.81-.1ZM43.93,275.77c1.46-3.76,2.21-5.07,2.48-6.47,11.77-59.81,50.44-91.63,111.34-91.64,77.66,0,155.33.59,233-.54,16-.24,32.18-5.87,47.6-11.05,9.78-3.28,16.75-11.56,19.16-22.76a20,20,0,0,0-3.83-.89c-103.41,0-206.84-1.1-310.24.41C76.87,143.8,28.53,208.79,43.93,275.77Zm39.3,43a11.36,11.36,0,0,0,1.14-3c3.13-51.81,31-78.13,82.68-78.11,48.08,0,96.16.17,144.23-.07,18.7-.09,37-3.22,52.37-14.66,6.11-4.56,10.16-11.89,16.55-19.67-5.42-.62-6.93-.94-8.44-.94-75,0-150-.3-225,.28-23.93.18-43.74,11.09-58.87,29.6C67.17,257.53,65.12,296.87,83.23,318.76ZM299,262.57c-49.79,0-98.23-1.44-146.52.5-33.07,1.33-53.35,40.05-37.19,66.33,16.58-27.88,23.39-31.7,56.43-31.72,20.37,0,40.79.77,61.1-.35A159.86,159.86,0,0,0,270,290.47C283.07,286.51,293.84,278.56,299,262.57ZM232.31,322.7c-27.87,0-52.65-.69-77.35.36-9.38.39-14.64,8.15-14.09,17.94s6.44,16.63,16,16.37C185.53,356.57,209.48,344.47,232.31,322.7Z"/></svg>