<svg id="Livello_1" data-name="Livello 1" xmlns="http://www.w3.org/2000/svg" viewBox="0 0 500 500"><path d="M499,109.21c5.46,39.25-12.43,69-50.87,81-20,6.22-35.47,11.49-45.21,34.22C392.45,249,364.89,255.66,339.47,261c-4.1.86-9.58,4.86-10.72,8.56C321.2,294,304.51,309,281.35,317.2c-8.91,3.16-14.89,8.33-20.83,15.56-37.9,46.13-86.44,67.08-145.62,54.39C57.31,374.8,19,339.35,4.05,281.58c-19.92-77,36.07-159,115.28-169.92a255.65,255.65,0,0,1,34.2-2.34q166.92-.25,333.84-.11ZM30.78,277.42c1.55-4,2.34-5.4,2.64-6.89,12.52-63.62,53.65-97.48,118.44-97.48,82.62,0,165.25.62,247.84-.59,17-.24,34.24-6.24,50.64-11.75,10.41-3.49,17.82-12.29,20.39-24.21a21.07,21.07,0,0,0-4.08-.95c-110,0-220-1.16-330,.44C65.82,137,14.4,206.16,30.78,277.42Zm41.81,45.72A12.68,12.68,0,0,0,73.8,320c3.33-55.12,33-83.12,88-83.1,51.15,0,102.29.18,153.43-.07,19.89-.1,39.39-3.43,55.71-15.6,6.51-4.85,10.81-12.65,17.61-20.92-5.76-.66-7.37-1-9-1-79.78,0-159.57-.31-239.35.3-25.46.2-46.53,11.81-62.63,31.49C55.5,258,53.32,299.87,72.59,323.14Zm229.56-59.77c-53,0-104.5-1.53-155.88.54-35.18,1.41-56.75,42.6-39.56,70.55,17.64-29.65,24.89-33.72,60-33.73,21.67,0,43.39.81,65-.38a169.87,169.87,0,0,0,39.48-7.3C285.18,288.84,296.64,280.39,302.15,263.37Zm-71,64c-29.65,0-56-.73-82.29.38-10,.42-15.57,8.67-15,19.09s6.85,17.69,17,17.41C181.42,363.37,206.89,350.5,231.18,327.34Z"/></svg>